<svg aria-hidden="true" style="position: absolute; width: 0; height: 0; overflow: hidden;" version="1.1" xmlns="http://www.w3.org/2000/svg" xmlns:xlink="http://www.w3.org/1999/xlink">
<defs>
<symbol id="icon-mob-menu-close" viewBox="0 0 32 32">
<path d="M0.703 27.856c-0.937 0.937-0.937 2.457 0 3.394s2.457 0.937 3.394 0l11.879-11.879 11.879 11.88c0.937 0.937 2.457 0.937 3.394 0s0.937-2.457 0-3.394l-11.879-11.88 11.879-11.879c0.937-0.937 0.937-2.457 0-3.394s-2.457-0.937-3.394 0l-11.879 11.879-11.879-11.879c-0.937-0.937-2.457-0.937-3.394 0s-0.937 2.457 0 3.394l11.879 11.879-11.879 11.879z"></path>
</symbol>
<symbol id="icon-burger" viewBox="0 0 32 32">
<path d="M6.4 11.734v-2.134h19.2v2.134h-19.2zM6.4 17.066h19.2v-2.133h-19.2v2.133zM6.4 22.4h19.2v-2.134h-19.2v2.134z"></path>
</symbol>
</defs>
</svg>