<svg aria-hidden="true" style="position: absolute; width: 0; height: 0; overflow: hidden;" version="1.1" xmlns="http://www.w3.org/2000/svg" xmlns:xlink="http://www.w3.org/1999/xlink">
<defs>
<symbol id="icon-burger" viewBox="0 0 41 32">
<path fill="#fff" style="fill: var(--color1, #fff)" d="M0 2.286c0-1.262 1.023-2.286 2.286-2.286h36.571c1.262 0 2.286 1.023 2.286 2.286s-1.023 2.286-2.286 2.286h-36.571c-1.262 0-2.286-1.023-2.286-2.286zM0 16c0-1.262 1.023-2.286 2.286-2.286h36.571c1.262 0 2.286 1.023 2.286 2.286s-1.023 2.286-2.286 2.286h-36.571c-1.262 0-2.286-1.023-2.286-2.286zM2.286 27.429c-1.262 0-2.286 1.023-2.286 2.286s1.023 2.286 2.286 2.286h36.571c1.262 0 2.286-1.023 2.286-2.286s-1.023-2.286-2.286-2.286h-36.571z"></path>
</symbol>
<symbol id="icon-close" viewBox="0 0 32 32">
<path d="M0.703 27.856c-0.937 0.937-0.937 2.457 0 3.394s2.457 0.937 3.394 0l11.879-11.879 11.879 11.88c0.937 0.937 2.457 0.937 3.394 0s0.937-2.457 0-3.394l-11.879-11.88 11.879-11.879c0.937-0.937 0.937-2.457 0-3.394s-2.457-0.937-3.394 0l-11.879 11.879-11.879-11.879c-0.937-0.937-2.457-0.937-3.394 0s-0.937 2.457 0 3.394l11.879 11.879-11.879 11.879z"></path>
</symbol>
</defs>
</svg>