<svg aria-hidden="true" style="position: absolute; width: 0; height: 0; overflow: hidden;" version="1.1" xmlns="http://www.w3.org/2000/svg" xmlns:xlink="http://www.w3.org/1999/xlink">
<defs>
<symbol id="icon-burger" viewBox="0 0 41 32">
<path d="M0 2.286c0-1.262 1.023-2.286 2.286-2.286v0h36.571c1.262 0 2.286 1.023 2.286 2.286s-1.023 2.286-2.286 2.286v0h-36.571c-1.262 0-2.286-1.023-2.286-2.286v0zM0 16c0-1.262 1.023-2.286 2.286-2.286v0h36.571c1.262 0 2.286 1.023 2.286 2.286s-1.023 2.286-2.286 2.286v0h-36.571c-1.262 0-2.286-1.023-2.286-2.286v0zM2.286 27.429c-1.262 0-2.286 1.023-2.286 2.286s1.023 2.286 2.286 2.286v0h36.571c1.262 0 2.286-1.023 2.286-2.286s-1.023-2.286-2.286-2.286v0h-36.571z"></path>
</symbol>
<symbol id="icon-close" viewBox="0 0 32 32">
<path d="M0.704 27.856c-0.463 0.438-0.751 1.058-0.751 1.744 0 1.325 1.075 2.4 2.4 2.4 0.686 0 1.305-0.288 1.742-0.749l0.001-0.001 11.88-11.878 11.88 11.878c0.437 0.452 1.049 0.733 1.726 0.733 1.325 0 2.4-1.075 2.4-2.4 0-0.677-0.281-1.289-0.732-1.726l-0.001-0.001-11.878-11.88 11.878-11.878c0.435-0.434 0.703-1.035 0.703-1.698 0-1.326-1.075-2.4-2.4-2.4-0.663 0-1.262 0.269-1.697 0.703l-11.88 11.88-11.878-11.88c-0.434-0.434-1.035-0.703-1.698-0.703-1.326 0-2.401 1.075-2.401 2.401 0 0.663 0.269 1.263 0.703 1.698l11.88 11.878-11.88 11.88z"></path>
</symbol>
</defs>
</svg>